<?xml version="1.0" encoding="UTF-8"?> <svg xmlns="http://www.w3.org/2000/svg" width="200" height="200" viewBox="0 0 200 200" fill="none"> <path d="M149.737 149.737C177.303 122.171 177.303 77.4777 149.737 49.9119C122.171 22.3461 77.4782 22.346 49.9124 49.9119C22.3465 77.4777 22.3465 122.171 49.9124 149.737C77.4782 177.302 122.171 177.302 149.737 149.737Z" fill="white"></path> <path d="M99.8076 175.424C58.1198 175.424 24.2102 141.515 24.2102 99.8269C24.2102 58.1391 58.1198 24.2295 99.8076 24.2295C141.495 24.2295 175.405 58.1391 175.405 99.8269C175.405 141.515 141.495 175.424 99.8076 175.424ZM99.8076 34.2509C63.6257 34.2509 34.2025 63.6741 34.2025 99.856C34.2025 136.038 63.6257 165.461 99.8076 165.461C135.99 165.461 165.413 136.038 165.413 99.856C165.413 63.6741 135.99 34.2509 99.8076 34.2509Z" fill="#0056F9"></path> <circle cx="100" cy="100" r="50" fill="#0056F9"></circle> <path d="M99.8 55.0004C74.9419 55.1171 54.8921 75.3502 55.0004 100.2C55.1171 125.05 75.3502 145.108 100.2 145C125.05 144.883 145.108 124.65 145 99.8C144.883 74.9419 124.65 54.8921 99.8 55.0004ZM94.1001 97.7917C89.6584 97.7917 86.0501 94.1917 86.0501 89.7501C86.0501 85.3085 89.6501 81.7085 94.1001 81.7085C98.5417 81.7085 102.142 85.3085 102.142 89.7501C102.142 94.1917 98.5417 97.7917 94.1001 97.7917ZM100.517 106.492L100.558 106.442L100.6 106.392C102.9 107.875 105.517 108.392 108.133 108.475C110.758 108.542 113.425 108.35 116.058 107.817C118.683 107.275 121.266 106.467 123.758 105.433C125.158 104.858 126.55 104.225 127.875 103.483C127.883 103.475 127.891 103.475 127.9 103.467C128.725 102.967 129.533 102.45 130.325 101.908C130.5 101.783 130.666 101.658 130.825 101.525L130.841 101.55L130.908 101.633C128.883 103.475 126.475 104.842 124.025 106.05C121.55 107.217 118.966 108.175 116.3 108.867C113.642 109.55 110.867 110.075 108.058 109.817C105.292 109.558 102.375 108.592 100.517 106.492ZM121.166 97.7917C121.166 96.825 121.941 96.05 122.9 96.0417C123.866 96.0417 124.641 96.8167 124.65 97.775C124.65 98.7333 123.875 99.525 122.916 99.525C121.958 99.5333 121.166 98.7583 121.166 97.7917ZM107.383 140.958C105.642 128.775 116.275 116.85 122.275 110.75C123.633 109.367 125.741 107.458 127.7 105.433C135.483 98.1584 137.033 89.4584 121.1 85.1085C118.083 84.2335 114.95 82.9918 111.783 81.7418C111.683 81.4502 111.567 81.1752 111.442 80.9169C111.075 80.2919 110.442 79.5669 109.475 78.7502C107.4 76.9502 103.517 77.0002 100.158 77.7919C96.4417 76.9169 92.7834 76.6086 89.2584 77.4502C73.8503 81.6918 71.3753 89.2084 70.7753 98.2667C69.9586 108.05 69.4836 115.342 65.7753 123.675C61.1504 117 58.4254 108.917 58.3921 100.183C58.2921 77.2086 76.8336 58.4921 99.8167 58.3921C122.8 58.2921 141.508 76.8336 141.616 99.8167C141.7 120.341 126.916 137.466 107.383 140.958Z" fill="white"></path> <path d="M100.517 89.8253C100.517 92.9502 97.9832 95.4835 94.8582 95.4835C91.7333 95.4835 89.2 92.9502 89.2 89.8253C89.2 86.7003 91.7333 84.167 94.8582 84.167C97.9832 84.167 100.517 86.7003 100.517 89.8253Z" fill="white"></path> </svg> 