<?xml version="1.0" encoding="UTF-8"?> <svg xmlns="http://www.w3.org/2000/svg" width="200" height="200" viewBox="0 0 200 200" fill="none"> <path d="M149.737 149.737C177.303 122.171 177.303 77.4782 149.737 49.9124C122.171 22.3465 77.4782 22.3465 49.9124 49.9124C22.3465 77.4782 22.3465 122.171 49.9124 149.737C77.4782 177.303 122.171 177.303 149.737 149.737Z" fill="white"></path> <path d="M99.8076 175.424C58.1198 175.424 24.2102 141.515 24.2102 99.8269C24.2102 58.1391 58.1198 24.2295 99.8076 24.2295C141.495 24.2295 175.405 58.1391 175.405 99.8269C175.405 141.515 141.495 175.424 99.8076 175.424ZM99.8076 34.2509C63.6257 34.2509 34.2025 63.6741 34.2025 99.856C34.2025 136.038 63.6257 165.461 99.8076 165.461C135.99 165.461 165.413 136.038 165.413 99.856C165.413 63.6741 135.99 34.2509 99.8076 34.2509Z" fill="#0056F9"></path> <circle cx="100" cy="100" r="50" fill="#0056F9"></circle> <path fill-rule="evenodd" clip-rule="evenodd" d="M133.997 109.573C132.369 110.598 130.451 110.725 128.993 109.907C127.142 108.865 126.124 106.427 126.124 103.036V92.8899C126.124 87.9904 124.179 84.504 120.926 83.5627C115.415 81.9635 111.269 88.6799 109.712 91.2023L99.9909 106.899V87.7136C99.8816 83.2995 98.4422 80.6592 95.7091 79.8631C93.9007 79.3368 91.195 79.5478 88.5667 83.5536L66.7885 118.381C63.873 112.869 62.3531 106.73 62.361 100.5C62.361 79.5206 79.2423 62.4539 99.9909 62.4539C120.74 62.4539 137.619 79.5206 137.619 100.5C137.619 100.536 137.628 100.568 137.63 100.602C137.63 100.638 137.623 100.67 137.625 100.706C137.821 104.769 136.5 107.999 133.997 109.573ZM145.98 100.502V100.396L145.977 100.291C145.861 74.7413 125.279 54 99.9887 54C74.6325 54 54 74.8592 54 100.5C54 126.139 74.6325 147 99.9909 147C111.627 147 122.732 142.595 131.257 134.599C132.952 133.011 133.052 130.337 131.481 128.627C131.111 128.221 130.663 127.892 130.164 127.66C129.665 127.428 129.125 127.298 128.574 127.277C128.024 127.256 127.475 127.344 126.96 127.537C126.444 127.73 125.973 128.023 125.573 128.4C118.663 134.917 109.507 138.548 99.9909 138.546C88.881 138.546 78.8847 133.649 71.9905 125.882L91.63 94.4754V108.954C91.63 115.909 94.338 118.156 96.6087 118.814C98.8818 119.472 102.355 119.023 106.001 113.125L116.804 95.6844C117.15 95.1219 117.469 94.6365 117.761 94.2168V103.036C117.761 109.537 120.375 114.736 124.933 117.297C129.041 119.606 134.207 119.397 138.416 116.752C143.518 113.543 146.267 107.629 145.98 100.502Z" fill="white"></path> </svg> 