<?xml version="1.0" encoding="UTF-8"?> <svg xmlns="http://www.w3.org/2000/svg" width="200" height="200" viewBox="0 0 200 200" fill="none"><path d="M149.737 149.737C177.303 122.171 177.303 77.478 149.737 49.9121C122.171 22.3463 77.4783 22.3463 49.9125 49.9121C22.3466 77.4779 22.3466 122.171 49.9125 149.737C77.4783 177.303 122.171 177.303 149.737 149.737Z" fill="white"></path><path d="M99.809 175.424C58.1211 175.424 24.2115 141.514 24.2115 99.8267C24.2115 58.1388 58.1211 24.2292 99.809 24.2292C141.497 24.2292 175.406 58.1388 175.406 99.8267C175.406 141.514 141.497 175.424 99.809 175.424ZM99.809 34.2506C63.6271 34.2506 34.2038 63.6739 34.2038 99.8558C34.2038 136.038 63.6271 165.461 99.809 165.461C135.991 165.461 165.414 136.038 165.414 99.8558C165.414 63.6739 135.991 34.2506 99.809 34.2506Z" fill="#0056F9"></path><path fill-rule="evenodd" clip-rule="evenodd" d="M100.804 50.9961C73.8367 50.9961 51.9755 72.8573 51.9755 99.8245C51.9755 126.792 73.8367 148.653 100.804 148.653C127.771 148.653 149.632 126.792 149.632 99.8245C149.632 72.8573 127.771 50.9961 100.804 50.9961ZM85.8106 72.4497C85.8099 72.3738 89.1359 70.5071 93.2013 68.3011C97.2667 66.0953 100.666 64.2865 100.754 64.2816C100.843 64.2768 101.351 64.5267 101.883 64.8374C102.415 65.148 105.186 66.6833 108.041 68.2492C113.949 71.489 116.127 72.7076 116.258 72.8464C116.357 72.951 115.726 73.2624 109.655 76.1041L108.154 76.8069C106.563 77.5514 104.714 77.5016 103.166 76.6724V76.6724L102.959 76.5614C101.551 75.8078 99.86 75.808 98.4527 76.562V76.562C97.2139 77.226 96.0713 77.7738 95.9138 77.7793C95.5676 77.7919 85.8125 72.6457 85.8106 72.4497ZM71.1388 85.0018C71.1388 82.0421 72.7644 79.3215 75.3708 77.9191V77.9191C77.6984 76.6666 79.7803 75.6326 79.9972 75.6211C80.2142 75.6095 84.918 78.0214 90.4502 80.9806C97.7894 84.9065 100.429 86.4258 100.212 86.6003C100.049 86.7316 98.9002 87.3079 97.6589 87.881C96.4176 88.4539 94.894 89.1687 94.2734 89.4698C93.4702 89.8576 92.6654 90.2418 91.859 90.6222V90.6222C91.0524 91.0021 90.1118 90.9677 89.3352 90.5297L87.6836 89.5982C85.9858 88.6406 84.289 87.681 82.5933 86.7196V86.7196C81.6111 86.1621 80.3927 86.8716 80.3927 88.001V93.1497C80.3927 94.8906 79.3823 96.4733 77.803 97.2059L75.8894 98.0938C73.4126 99.2429 71.3305 100.183 71.2625 100.183C71.1944 100.183 71.1388 95.6861 71.1388 90.1896V85.0018ZM111.775 81.1434C111.778 81.0771 114.138 79.9139 117.02 78.5586C119.902 77.2028 122.338 76.0913 122.432 76.0882C122.527 76.0848 124.331 77.0055 126.443 78.1341V78.1341C128.802 79.3954 130.264 81.8637 130.237 84.5386L130.22 86.1354L130.191 89.0837C130.172 90.9204 129.109 92.5862 127.452 93.3774V93.3774C125.962 94.0884 121.849 96.0312 118.311 97.6946C114.285 99.5877 110.26 101.482 106.236 103.377C97.2355 107.617 93.0433 109.583 87.5653 112.135C84.7449 113.448 82.4341 114.592 82.4305 114.676C82.4269 114.76 82.6016 114.889 82.8189 114.962C83.0363 115.036 84.0265 115.594 85.0195 116.202C86.0126 116.809 87.3583 117.597 88.0101 117.953C88.6617 118.309 89.1951 118.671 89.1951 118.758C89.1951 118.845 86.8337 120.026 83.9475 121.383L82.5772 122.027C80.1364 123.174 77.2978 123.106 74.9156 121.841V121.841V121.841C72.5908 120.607 71.1481 118.18 71.1751 115.548L71.1915 113.95C71.242 109.018 71.3063 108.036 71.5902 107.866C71.8725 107.698 73.9285 106.72 81.4084 103.193C81.7184 103.046 84.0593 101.944 86.9484 100.584L88.7436 99.7382L103.302 92.8836C107.646 90.8377 112.902 88.3652 114.982 87.3891C117.061 86.4128 118.762 85.5541 118.762 85.4805C118.762 85.4068 117.189 84.4281 115.266 83.3052C113.344 82.1826 111.773 81.2096 111.775 81.1434ZM126.649 101.219C127.449 100.848 128.566 100.309 129.132 100.021C129.697 99.7336 130.229 99.4895 130.312 99.4791C130.522 99.4526 130.54 119.039 130.33 119.371C130.237 119.518 128.208 120.691 125.822 121.976V121.976C123.114 123.435 119.854 123.433 117.149 121.969L111.328 118.821C105.742 115.799 101.244 113.26 101.334 113.178C101.423 113.096 103.324 112.189 105.559 111.162C107.793 110.135 109.911 109.146 110.266 108.963C110.879 108.646 111.042 108.704 113.651 110.16C117.266 112.178 120.861 114.098 121.088 114.134C121.188 114.149 121.29 111.811 121.314 108.939L121.34 105.84C121.351 104.541 122.103 103.362 123.276 102.804V102.804C124.331 102.303 125.849 101.589 126.649 101.219ZM102.85 124.023C103.602 123.685 104.355 123.348 105.107 123.011V123.011C106.247 122.5 107.558 122.542 108.663 123.124L111.634 124.689C114.231 126.057 116.387 127.211 116.426 127.252C116.465 127.294 114.391 128.398 111.818 129.706C109.244 131.013 105.701 132.822 103.945 133.725V133.725C101.943 134.754 99.5653 134.744 97.5726 133.697L93.1616 131.38C86.6898 127.979 85.0126 126.935 86.0214 126.935C86.1234 126.935 88.1742 126.002 90.5786 124.862C92.9832 123.722 95.157 122.703 95.4096 122.598C95.7463 122.458 96.5221 122.746 98.3218 123.68C99.7681 124.43 100.313 124.768 100.855 124.764C101.326 124.761 101.795 124.499 102.85 124.023Z" fill="#0056F9"></path></svg> 