<?xml version="1.0" encoding="UTF-8"?> <svg xmlns="http://www.w3.org/2000/svg" width="200" height="200" viewBox="0 0 200 200" fill="none"><path d="M149.737 149.737C177.303 122.171 177.303 77.4782 149.737 49.9124C122.171 22.3465 77.4782 22.3465 49.9124 49.9124C22.3465 77.4782 22.3465 122.171 49.9124 149.737C77.4782 177.303 122.171 177.303 149.737 149.737Z" fill="white"></path><path d="M99.8076 175.424C58.1198 175.424 24.2102 141.515 24.2102 99.8268C24.2102 58.139 58.1198 24.2294 99.8076 24.2294C141.495 24.2294 175.405 58.139 175.405 99.8268C175.405 141.515 141.495 175.424 99.8076 175.424ZM99.8076 34.2508C63.6257 34.2508 34.2025 63.674 34.2025 99.8559C34.2025 136.038 63.6257 165.461 99.8076 165.461C135.99 165.461 165.413 136.038 165.413 99.8559C165.413 63.674 135.99 34.2508 99.8076 34.2508Z" fill="#0056F9"></path><path d="M71.5012 97.8007C71.5013 97.2501 71.6101 96.705 71.8215 96.1966C72.0328 95.6882 72.3425 95.2267 72.7327 94.8383C73.123 94.4499 73.5861 94.1424 74.0955 93.9335C74.6049 93.7246 75.1505 93.6184 75.7011 93.621L82.6645 93.6437C83.7747 93.6437 84.8395 94.0848 85.6245 94.8698C86.4096 95.6548 86.8507 96.7196 86.8507 97.8299V124.16C87.6346 123.927 88.6414 123.679 89.7431 123.419C90.5083 123.24 91.1903 122.807 91.6785 122.191C92.1666 121.574 92.4322 120.811 92.432 120.025V87.3645C92.432 86.2541 92.873 85.1893 93.658 84.4041C94.443 83.6189 95.5078 83.1777 96.6182 83.1775H103.595C104.706 83.1777 105.77 83.6189 106.555 84.4041C107.34 85.1893 107.782 86.2541 107.782 87.3645V117.677C107.782 117.677 109.528 116.97 111.23 116.252C111.862 115.984 112.401 115.537 112.781 114.965C113.16 114.393 113.363 113.722 113.364 113.036V76.8991C113.364 75.789 113.805 74.7243 114.589 73.9392C115.374 73.1542 116.439 72.7131 117.549 72.7129H124.526C125.636 72.7129 126.701 73.1539 127.486 73.939C128.271 74.724 128.712 75.7888 128.712 76.8991V106.657C134.761 102.273 140.891 97.0006 145.756 90.6606C146.462 89.7403 146.929 88.6596 147.116 87.5151C147.302 86.3705 147.202 85.1975 146.825 84.1008C144.573 77.622 140.994 71.6845 136.316 66.6684C131.638 61.6524 125.964 57.6681 119.658 54.9707C113.352 52.2733 106.552 50.922 99.693 51.0035C92.8345 51.0849 86.0685 52.5973 79.8281 55.4437C73.5876 58.2902 68.0101 62.408 63.4524 67.5338C58.8947 72.6595 55.4573 78.6803 53.36 85.2108C51.2628 91.7413 50.552 98.6377 51.2731 105.459C51.9941 112.28 54.1312 118.875 57.5475 124.823C58.1427 125.849 59.0182 126.684 60.0713 127.229C61.1245 127.775 62.3114 128.009 63.4928 127.903C64.8126 127.787 66.4557 127.623 68.4094 127.393C69.2598 127.297 70.045 126.891 70.6153 126.252C71.1857 125.614 71.5013 124.788 71.502 123.933L71.5012 97.8007Z" fill="#0056F9"></path><path d="M71.3489 140.031C78.7033 145.382 87.3946 148.593 96.4611 149.311C105.528 150.027 114.616 148.223 122.72 144.095C130.824 139.967 137.629 133.678 142.381 125.924C147.132 118.169 149.646 109.25 149.643 100.156C149.643 99.0206 149.59 97.8979 149.515 96.7816C131.503 123.645 98.2468 136.203 71.3504 140.027" fill="#0056F9"></path></svg> 