<?xml version="1.0" encoding="UTF-8"?> <svg xmlns="http://www.w3.org/2000/svg" width="200" height="200" viewBox="0 0 200 200" fill="none"><path d="M149.737 149.737C177.303 122.171 177.303 77.478 149.737 49.9121C122.171 22.3463 77.4782 22.3463 49.9124 49.9121C22.3465 77.4779 22.3465 122.171 49.9124 149.737C77.4782 177.303 122.171 177.303 149.737 149.737Z" fill="white"></path><path d="M99.8251 175.424C58.1373 175.424 24.2277 141.514 24.2277 99.8267C24.2277 58.1388 58.1373 24.2292 99.8251 24.2292C141.513 24.2292 175.422 58.1388 175.422 99.8267C175.422 141.514 141.513 175.424 99.8251 175.424ZM99.8251 34.2506C63.6432 34.2506 34.2199 63.6739 34.2199 99.8558C34.2199 136.038 63.6432 165.461 99.8251 165.461C136.007 165.461 165.43 136.038 165.43 99.8558C165.43 63.6739 136.007 34.2506 99.8251 34.2506Z" fill="#0056F9"></path><path d="M99.8245 50.998C72.8712 50.998 50.9961 72.8732 50.9961 99.8265C50.9961 126.78 72.8712 148.655 99.8245 148.655C126.778 148.655 148.653 126.78 148.653 99.8265C148.653 72.8732 126.778 50.998 99.8245 50.998ZM122.481 84.2014C121.748 91.9163 118.575 110.666 116.963 119.309C116.28 122.971 114.913 124.192 113.643 124.338C110.811 124.582 108.662 122.483 105.928 120.676C101.631 117.844 99.1898 116.086 95.0393 113.352C90.2053 110.178 93.3303 108.42 96.1136 105.588C96.846 104.856 109.346 93.4788 109.59 92.4534C109.624 92.2981 109.62 92.1368 109.577 91.9837C109.535 91.8305 109.455 91.69 109.346 91.5745C109.053 91.3303 108.662 91.428 108.321 91.4768C107.881 91.5745 101.045 96.1155 87.7151 105.1C85.7619 106.418 84.0041 107.102 82.4416 107.053C80.6838 107.004 77.3634 106.077 74.8732 105.246C71.797 104.27 69.4044 103.733 69.5997 102.024C69.6974 101.145 70.9181 100.266 73.213 99.3382C87.4709 93.137 96.9436 89.0354 101.68 87.0823C115.254 81.4182 118.038 80.4416 119.893 80.4416C120.284 80.4416 121.211 80.5392 121.797 81.0275C122.286 81.4182 122.432 81.9553 122.481 82.3459C122.432 82.6389 122.53 83.5178 122.481 84.2014Z" fill="#0056F9"></path></svg> 