<?xml version="1.0" encoding="UTF-8"?> <svg xmlns="http://www.w3.org/2000/svg" width="200" height="200" viewBox="0 0 200 200" fill="none"><path d="M149.737 149.737C177.303 122.171 177.303 77.4782 149.737 49.9124C122.171 22.3465 77.4782 22.3465 49.9124 49.9124C22.3465 77.4782 22.3465 122.171 49.9124 149.737C77.4782 177.303 122.171 177.303 149.737 149.737Z" fill="white"></path><path d="M99.8076 175.424C58.1198 175.424 24.2102 141.515 24.2102 99.8268C24.2102 58.139 58.1198 24.2294 99.8076 24.2294C141.495 24.2294 175.405 58.139 175.405 99.8268C175.405 141.515 141.495 175.424 99.8076 175.424ZM99.8076 34.2508C63.6257 34.2508 34.2025 63.674 34.2025 99.8559C34.2025 136.038 63.6257 165.461 99.8076 165.461C135.99 165.461 165.413 136.038 165.413 99.8559C165.413 63.674 135.99 34.2508 99.8076 34.2508Z" fill="#0056F9"></path><circle cx="100" cy="100" r="50" fill="#0056F9"></circle><path d="M88.3636 71H68L92.0291 102.944L69.3091 129H77.0182L95.6015 107.688L111.636 129H132L106.959 95.7138L128.509 71H120.8L103.386 90.9694L88.3636 71ZM114.545 123.2L79.6364 76.8H85.4545L120.364 123.2H114.545Z" fill="white"></path></svg> 